<svg version="1.0" xmlns="http://www.w3.org/2000/svg"
 width="200.000000pt" height="200.000000pt" viewBox="0 0 200.000000 200.000000"
 preserveAspectRatio="xMidYMid meet">

<g transform="translate(0.000000,200.000000) scale(0.100000,-0.100000)"
fill="#bbb" stroke="none">
<path d="M305 1882 c-99 -34 -174 -117 -195 -215 -8 -36 -10 -249 -8 -697 3
-631 3 -646 24 -691 30 -63 79 -116 138 -147 l51 -27 669 -3 c774 -3 732 -7
827 87 94 95 90 53 87 827 l-3 669 -27 51 c-31 59 -84 108 -147 138 -45 21
-59 21 -706 23 -606 2 -664 1 -710 -15z m1373 -157 c18 -11 41 -38 52 -61 20
-40 20 -58 18 -680 -3 -599 -4 -641 -21 -666 -10 -15 -30 -35 -45 -45 -25 -17
-67 -18 -666 -21 -622 -2 -640 -2 -680 18 -23 11 -50 34 -61 52 -19 32 -20 56
-23 633 -2 330 0 624 3 653 6 45 13 60 45 92 21 21 51 41 67 43 15 2 309 4
653 3 604 -1 626 -2 658 -21z"/>
<path d="M893 1435 c-178 -48 -305 -188 -336 -370 -22 -130 22 -269 118 -373
95 -103 210 -148 358 -139 75 4 99 10 161 40 161 80 256 231 256 409 0 125
-51 240 -145 326 -114 105 -270 145 -412 107z m240 -115 c74 -28 148 -98 184
-175 24 -52 28 -72 28 -150 -1 -78 -4 -97 -28 -145 -38 -73 -89 -125 -162
-163 -54 -28 -69 -31 -150 -32 -78 0 -98 4 -150 28 -219 102 -269 390 -99 561
101 101 238 128 377 76z"/>
<path d="M950 400 l0 -50 50 0 50 0 0 50 0 50 -50 0 -50 0 0 -50z"/>
</g>
</svg>
